<svg xmlns="http://www.w3.org/2000/svg" xmlns:xlink="http://www.w3.org/1999/xlink" viewBox="0 0 65 65" fill="#fff" fill-rule="evenodd" stroke="#000" stroke-linecap="round" stroke-linejoin="round"><use xlink:href="#B" x=".5" y=".5"/><defs><linearGradient y2="0.75%" x2="101.08%" y1="91.70%" x1="24.74%" id="A"><stop offset="28.000000000000004%" stop-color="#cd163f"/><stop offset="90%" stop-color="#f58025"/></linearGradient></defs><symbol id="B" overflow="visible"><g stroke="none" fill-rule="nonzero"><path d="M18.21 19.825L43.819.856c.372-.275.178-.856-.275-.856H22.54c-2.424 0-4.766.969-6.479 2.682L2.682 16.044C.969 17.773 0 20.1 0 22.54v18.904c0 2.44.969 4.766 2.682 6.495l13.362 13.362c1.729 1.713 4.072 2.682 6.495 2.682h18.177c.501 0 .662-.679.194-.905L4.799 46.049a4.32 4.32 0 0 1-2.472-3.894v-9.064a3 3 0 0 1 1.212-2.407l5.203-3.862v-7.012h9.468z" fill="url(#A)"/><path d="M43.108 27.128l-2.472 6.722h4.831zm-20.779.275c0-2.149-1.47-2.456-3.021-2.456H16.19v5.073h3.005c1.583-.016 3.135-.226 3.135-2.618zm39.328-10.987L49.216 3.974c-.695-.695-1.793-.792-2.618-.226L22.653 19.873c4.54.291 7.287 2.117 7.287 6.318 0 3.652-1.971 5.93-5.316 6.334v.065c1.551.291 2.585 1.002 3.345 1.971a2.9 2.9 0 0 1 .549 1.147l1.89 5.736 8.143-20.391c.291-.711.986-1.179 1.745-1.179h7.158l9.517 23.816H51.09c-1.196 0-2.311-.759-2.811-1.89h0l-.921-2.601h-8.644l-1.68 4.492h-12.91c-.695 0-1.276-.501-1.39-1.212l-2.149-6.237c-.291-1.066-1.357-1.244-2.407-1.244h-2.084v8.677H8.741V29.229l-4.395 2.957a1.45 1.45 0 0 0-.63 1.212v9.194a1.47 1.47 0 0 0 .889 1.357l41.444 17.353c.776.339 1.664.162 2.262-.42l13.346-13.298A7.94 7.94 0 0 0 64 41.945V22.039c0-2.117-.84-4.136-2.343-5.623z" fill="#cd163f"/></g></symbol></svg>